<svg xmlns="http://www.w3.org/2000/svg" width="1400" height="1642" viewBox="0 0 1400 1642" role="img" aria-label="Veritas-Medica system capabilities, NotebookLM bento-grid style">
<rect width="1400" height="1642" fill="#FAF8F2"/>
<rect x="56" y="56" width="6" height="118" rx="3" fill="#212635"/>
<text x="80" y="80" font-family="Inter, 'IBM Plex Sans Arabic', 'Segoe UI', system-ui, sans-serif" font-size="12.5" font-weight="700" letter-spacing="2.6" fill="#6B6B6B">VERITAS-MEDICA · CAPABILITY MAP</text>
<text x="80" y="138" font-family="Inter, 'IBM Plex Sans Arabic', 'Segoe UI', system-ui, sans-serif" font-size="56" font-weight="800" fill="#2B2B2B">System Capabilities</text>
<text x="80" y="168" font-family="Inter, 'IBM Plex Sans Arabic', 'Segoe UI', system-ui, sans-serif" font-size="16.5" fill="#6B6B6B">Live, simulated, and deliberately not built — drawn from the system's own truth table, not from a deck.</text>
<rect x="1044.0" y="62" width="300" height="34" rx="17" fill="#FFFFFF" stroke="#E8E4DA"/><circle cx="1062.0" cy="79" r="5" fill="#5F8F4A"/><text x="1076.0" y="83.5" font-family="'Cascadia Mono', Consolas, 'SF Mono', Menlo, monospace" font-size="12.6" fill="#6B6B6B">18 Sep 2026 · feat/ui-light-theme</text>
<rect x="56.0" y="250.0" width="852.0" height="280.0" rx="22" fill="#FFFFFF" stroke="#E8E4DA"/><rect x="56.0" y="250.0" width="852.0" height="280.0" rx="22" fill="#ECF5F9" opacity="0.55"/><rect x="78.0" y="272.0" width="46.0" height="46.0" rx="13" fill="#FFFFFF" stroke="#3E86A833"/><g transform="translate(89.0 283.0) scale(1.0000)"><path d="M7 3h7l4 4v14H7z" fill="none" stroke="#3E86A8" stroke-width="1.8"/><path d="M14 3v4h4M10 12h5M10 16h5" fill="none" stroke="#3E86A8" stroke-width="1.6"/></g><text x="78.0" y="344.0" font-family="Inter, 'IBM Plex Sans Arabic', 'Segoe UI', system-ui, sans-serif" font-size="18.5" font-weight="700" fill="#2B2B2B">Pre-submission claim integrity for NPHIES</text><rect x="838.7" y="274.0" width="47.3" height="22.0" rx="11.0" fill="#E7F4E8"/><text x="862.4" y="288.6" font-family="Inter, 'IBM Plex Sans Arabic', 'Segoe UI', system-ui, sans-serif" font-size="11" font-weight="700" letter-spacing="0.6" fill="#2E7D32" text-anchor="middle">LIVE</text><text x="78.0" y="368.0" font-family="Inter, 'IBM Plex Sans Arabic', 'Segoe UI', system-ui, sans-serif" font-size="15" fill="#6B6B6B">Ambient documentation, a clinician-reviewed SOAP note, coded orders and claim readiness in one loop —</text><text x="78.0" y="388.0" font-family="Inter, 'IBM Plex Sans Arabic', 'Segoe UI', system-ui, sans-serif" font-size="15" fill="#6B6B6B">with every claim traceable back to the record it was built from.</text><circle cx="86.0" cy="409.5" r="5" fill="#2E7D32" stroke="#2E7D32" stroke-width="2"/><text x="100.0" y="414.0" font-family="Inter, 'IBM Plex Sans Arabic', 'Segoe UI', system-ui, sans-serif" font-size="14.2" fill="#2B2B2B">Deterministic facts: the model formats text, it never decides a fact, a code or a dose</text><circle cx="86.0" cy="434.5" r="5" fill="#2E7D32" stroke="#2E7D32" stroke-width="2"/><text x="100.0" y="439.0" font-family="Inter, 'IBM Plex Sans Arabic', 'Segoe UI', system-ui, sans-serif" font-size="14.2" fill="#2B2B2B">The clinician signs every clinical action — about seven explicit approvals on the headline path</text><circle cx="86.0" cy="459.5" r="5" fill="#2E7D32" stroke="#2E7D32" stroke-width="2"/><text x="100.0" y="464.0" font-family="Inter, 'IBM Plex Sans Arabic', 'Segoe UI', system-ui, sans-serif" font-size="14.2" fill="#2B2B2B">Evidence links must entail: a citation supports its claim or it does not ship</text><rect x="78.0" y="493.0" width="808.0" height="50.0" rx="10" fill="#FAF8F2" stroke="#E8E4DA"/><text x="90.0" y="511.0" font-family="Inter, 'IBM Plex Sans Arabic', 'Segoe UI', system-ui, sans-serif" font-size="12.6" fill="#6B6B6B">When a fact or a control is missing the system refuses or defers and says so, rather than guessing: the pilot</text><text x="90.0" y="527.0" font-family="Inter, 'IBM Plex Sans Arabic', 'Segoe UI', system-ui, sans-serif" font-size="12.6" fill="#6B6B6B">establishes the local rates, not a borrowed benchmark.</text>
<rect x="928.0" y="250.0" width="416.0" height="280.0" rx="22" fill="#FFFFFF" stroke="#E8E4DA"/><rect x="928.0" y="250.0" width="416.0" height="280.0" rx="22" fill="#FBEEEE" opacity="0.55"/><rect x="950.0" y="272.0" width="46.0" height="46.0" rx="13" fill="#FFFFFF" stroke="#B45A5A33"/><g transform="translate(961.0 283.0) scale(1.0000)"><path d="M4 14.5 14.5 4l5.5 5.5L9.5 20z" fill="none" stroke="#B45A5A" stroke-width="1.8"/><path d="M8 13l1.6 1.6M11 10l1.6 1.6M14 7l1.6 1.6" stroke="#B45A5A" stroke-width="1.5"/></g><text x="950.0" y="344.0" font-family="Inter, 'IBM Plex Sans Arabic', 'Segoe UI', system-ui, sans-serif" font-size="18.5" font-weight="700" fill="#2B2B2B">Read from the running system</text><rect x="1274.7" y="274.0" width="47.3" height="22.0" rx="11.0" fill="#E7F4E8"/><text x="1298.4" y="288.6" font-family="Inter, 'IBM Plex Sans Arabic', 'Segoe UI', system-ui, sans-serif" font-size="11" font-weight="700" letter-spacing="0.6" fill="#2E7D32" text-anchor="middle">LIVE</text><text x="950.0" y="398.0" font-family="Inter, 'IBM Plex Sans Arabic', 'Segoe UI', system-ui, sans-serif" font-size="46" font-weight="800" fill="#212635">0</text><text x="990.0" y="390.0" font-family="Inter, 'IBM Plex Sans Arabic', 'Segoe UI', system-ui, sans-serif" font-size="13.6" fill="#6B6B6B">SFDA-coded medications in the seed</text><text x="950.0" y="438.0" font-family="Inter, 'IBM Plex Sans Arabic', 'Segoe UI', system-ui, sans-serif" font-size="46" font-weight="800" fill="#212635">0</text><text x="990.0" y="430.0" font-family="Inter, 'IBM Plex Sans Arabic', 'Segoe UI', system-ui, sans-serif" font-size="13.6" fill="#6B6B6B">contraindication edges loaded</text><text x="950.0" y="478.0" font-family="Inter, 'IBM Plex Sans Arabic', 'Segoe UI', system-ui, sans-serif" font-size="46" font-weight="800" fill="#212635">1</text><text x="990.0" y="470.0" font-family="Inter, 'IBM Plex Sans Arabic', 'Segoe UI', system-ui, sans-serif" font-size="13.6" fill="#6B6B6B">renal-dose rule loaded</text><rect x="950.0" y="512.0" width="372.0" height="50.0" rx="10" fill="#FAF8F2" stroke="#E8E4DA"/><text x="962.0" y="530.0" font-family="Inter, 'IBM Plex Sans Arabic', 'Segoe UI', system-ui, sans-serif" font-size="12.6" fill="#6B6B6B">So the necessity and interaction checks defer instead</text><text x="962.0" y="546.0" font-family="Inter, 'IBM Plex Sans Arabic', 'Segoe UI', system-ui, sans-serif" font-size="12.6" fill="#6B6B6B">of turning green. Unknown is not green.</text>
<rect x="56.0" y="550.0" width="307.0" height="235.6" rx="22" fill="#FFFFFF" stroke="#E8E4DA"/><rect x="56.0" y="550.0" width="307.0" height="235.6" rx="22" fill="#F1F7EC" opacity="0.55"/><rect x="78.0" y="572.0" width="46.0" height="46.0" rx="13" fill="#FFFFFF" stroke="#5F8F4A33"/><g transform="translate(89.0 583.0) scale(1.0000)"><rect x="9.5" y="3" width="5" height="10" rx="2.5" fill="none" stroke="#5F8F4A" stroke-width="1.8"/><path d="M6.5 11a5.5 5.5 0 0 0 11 0M12 16.5V21M8.5 21h7" fill="none" stroke="#5F8F4A" stroke-width="1.8" stroke-linecap="round"/></g><text x="78.0" y="644.0" font-family="Inter, 'IBM Plex Sans Arabic', 'Segoe UI', system-ui, sans-serif" font-size="18.5" font-weight="700" fill="#2B2B2B">Ambient Documentation</text><rect x="293.7" y="574.0" width="47.3" height="22.0" rx="11.0" fill="#E7F4E8"/><text x="317.4" y="588.6" font-family="Inter, 'IBM Plex Sans Arabic', 'Segoe UI', system-ui, sans-serif" font-size="11" font-weight="700" letter-spacing="0.6" fill="#2E7D32" text-anchor="middle">LIVE</text><circle cx="86.0" cy="663.5" r="5" fill="#2E7D32" stroke="#2E7D32" stroke-width="2"/><text x="100.0" y="668.0" font-family="Inter, 'IBM Plex Sans Arabic', 'Segoe UI', system-ui, sans-serif" font-size="13.6" fill="#2B2B2B">Live dictation, on-prem</text><circle cx="86.0" cy="688.5" r="5" fill="#2E7D32" stroke="#2E7D32" stroke-width="2"/><text x="100.0" y="693.0" font-family="Inter, 'IBM Plex Sans Arabic', 'Segoe UI', system-ui, sans-serif" font-size="13.6" fill="#2B2B2B">SOAP drafted; the model only</text><text x="100.0" y="713.6" font-family="Inter, 'IBM Plex Sans Arabic', 'Segoe UI', system-ui, sans-serif" font-size="13.6" fill="#2B2B2B">formats</text><circle cx="86.0" cy="734.1" r="5" fill="#2E7D32" stroke="#2E7D32" stroke-width="2"/><text x="100.0" y="738.6" font-family="Inter, 'IBM Plex Sans Arabic', 'Segoe UI', system-ui, sans-serif" font-size="13.6" fill="#2B2B2B">Checklist quotes are verified</text><circle cx="86.0" cy="759.1" r="5" fill="#2E7D32" stroke="#2E7D32" stroke-width="2"/><text x="100.0" y="763.6" font-family="Inter, 'IBM Plex Sans Arabic', 'Segoe UI', system-ui, sans-serif" font-size="13.6" fill="#2B2B2B">Draft save and sign, auditable</text><circle cx="86.0" cy="784.1" r="5" fill="#9A6A16" stroke="#9A6A16" stroke-width="2"/><text x="100.0" y="788.6" font-family="Inter, 'IBM Plex Sans Arabic', 'Segoe UI', system-ui, sans-serif" font-size="13.6" fill="#2B2B2B">Demo playback is scripted</text>
<rect x="383.0" y="550.0" width="307.0" height="235.6" rx="22" fill="#FFFFFF" stroke="#E8E4DA"/><rect x="383.0" y="550.0" width="307.0" height="235.6" rx="22" fill="#FDF2EA" opacity="0.55"/><rect x="405.0" y="572.0" width="46.0" height="46.0" rx="13" fill="#FFFFFF" stroke="#C97B4333"/><g transform="translate(416.0 583.0) scale(1.0000)"><path d="M4 5h16v10H9l-5 4z" fill="none" stroke="#C97B43" stroke-width="1.8" stroke-linejoin="round"/><circle cx="9.5" cy="10" r="1.3" fill="#C97B43"/><circle cx="14.5" cy="10" r="1.3" fill="#C97B43"/></g><text x="405.0" y="644.0" font-family="Inter, 'IBM Plex Sans Arabic', 'Segoe UI', system-ui, sans-serif" font-size="18.5" font-weight="700" fill="#2B2B2B">Grounded Q&amp;A</text><rect x="620.7" y="574.0" width="47.3" height="22.0" rx="11.0" fill="#E7F4E8"/><text x="644.4" y="588.6" font-family="Inter, 'IBM Plex Sans Arabic', 'Segoe UI', system-ui, sans-serif" font-size="11" font-weight="700" letter-spacing="0.6" fill="#2E7D32" text-anchor="middle">LIVE</text><circle cx="413.0" cy="663.5" r="5" fill="#2E7D32" stroke="#2E7D32" stroke-width="2"/><text x="427.0" y="668.0" font-family="Inter, 'IBM Plex Sans Arabic', 'Segoe UI', system-ui, sans-serif" font-size="13.6" fill="#2B2B2B">Classify, then answer or refuse</text><circle cx="413.0" cy="688.5" r="5" fill="#2E7D32" stroke="#2E7D32" stroke-width="2"/><text x="427.0" y="693.0" font-family="Inter, 'IBM Plex Sans Arabic', 'Segoe UI', system-ui, sans-serif" font-size="13.6" fill="#2B2B2B">Retrieves the PostgreSQL index</text><circle cx="413.0" cy="713.5" r="5" fill="#2E7D32" stroke="#2E7D32" stroke-width="2"/><text x="427.0" y="718.0" font-family="Inter, 'IBM Plex Sans Arabic', 'Segoe UI', system-ui, sans-serif" font-size="13.6" fill="#2B2B2B">Blocklist gate fails closed</text><circle cx="413.0" cy="738.5" r="5" fill="#2E7D32" stroke="#2E7D32" stroke-width="2"/><text x="427.0" y="743.0" font-family="Inter, 'IBM Plex Sans Arabic', 'Segoe UI', system-ui, sans-serif" font-size="13.6" fill="#2B2B2B">A refusal still offers the facts</text><circle cx="413.0" cy="763.5" r="5" fill="none" stroke="#4C3FA8" stroke-width="2"/><text x="427.0" y="768.0" font-family="Inter, 'IBM Plex Sans Arabic', 'Segoe UI', system-ui, sans-serif" font-size="13.6" fill="#2B2B2B">Citations carry the row id</text>
<rect x="710.0" y="550.0" width="307.0" height="235.6" rx="22" fill="#FFFFFF" stroke="#E8E4DA"/><rect x="710.0" y="550.0" width="307.0" height="235.6" rx="22" fill="#ECF5F9" opacity="0.55"/><rect x="732.0" y="572.0" width="46.0" height="46.0" rx="13" fill="#FFFFFF" stroke="#3E86A833"/><g transform="translate(743.0 583.0) scale(1.0000)"><circle cx="6" cy="7" r="2.4" fill="none" stroke="#3E86A8" stroke-width="1.7"/><circle cx="18" cy="7" r="2.4" fill="none" stroke="#3E86A8" stroke-width="1.7"/><circle cx="12" cy="18" r="2.4" fill="none" stroke="#3E86A8" stroke-width="1.7"/><path d="M8 8.5 10.5 15M16 8.5 13.5 15M8.4 7h7.2" stroke="#3E86A8" stroke-width="1.5"/></g><text x="732.0" y="644.0" font-family="Inter, 'IBM Plex Sans Arabic', 'Segoe UI', system-ui, sans-serif" font-size="18.5" font-weight="700" fill="#2B2B2B">Evidence Chain</text><rect x="947.7" y="574.0" width="47.3" height="22.0" rx="11.0" fill="#E7F4E8"/><text x="971.4" y="588.6" font-family="Inter, 'IBM Plex Sans Arabic', 'Segoe UI', system-ui, sans-serif" font-size="11" font-weight="700" letter-spacing="0.6" fill="#2E7D32" text-anchor="middle">LIVE</text><circle cx="740.0" cy="663.5" r="5" fill="#2E7D32" stroke="#2E7D32" stroke-width="2"/><text x="754.0" y="668.0" font-family="Inter, 'IBM Plex Sans Arabic', 'Segoe UI', system-ui, sans-serif" font-size="13.6" fill="#2B2B2B">Reasons over the patient graph</text><circle cx="740.0" cy="688.5" r="5" fill="#2E7D32" stroke="#2E7D32" stroke-width="2"/><text x="754.0" y="693.0" font-family="Inter, 'IBM Plex Sans Arabic', 'Segoe UI', system-ui, sans-serif" font-size="13.6" fill="#2B2B2B">Shows the query it really ran</text><circle cx="740.0" cy="713.5" r="5" fill="#2E7D32" stroke="#2E7D32" stroke-width="2"/><text x="754.0" y="718.0" font-family="Inter, 'IBM Plex Sans Arabic', 'Segoe UI', system-ui, sans-serif" font-size="13.6" fill="#2B2B2B">Interaction and renal modules run</text><circle cx="740.0" cy="738.5" r="5" fill="#2E7D32" stroke="#2E7D32" stroke-width="2"/><text x="754.0" y="743.0" font-family="Inter, 'IBM Plex Sans Arabic', 'Segoe UI', system-ui, sans-serif" font-size="13.6" fill="#2B2B2B">Necessity uses pre-auth rules</text>
<rect x="1037.0" y="550.0" width="307.0" height="235.6" rx="22" fill="#FFFFFF" stroke="#E8E4DA"/><rect x="1037.0" y="550.0" width="307.0" height="235.6" rx="22" fill="#F3F0FB" opacity="0.55"/><rect x="1059.0" y="572.0" width="46.0" height="46.0" rx="13" fill="#FFFFFF" stroke="#7A62B833"/><g transform="translate(1070.0 583.0) scale(1.0000)"><path d="M12 3 20 6v6c0 5-3.4 8.2-8 9.6C7.4 20.2 4 17 4 12V6z" fill="none" stroke="#7A62B8" stroke-width="1.8" stroke-linejoin="round"/><path d="M8.6 12.2 11 14.6l4.4-4.8" fill="none" stroke="#7A62B8" stroke-width="1.9" stroke-linecap="round" stroke-linejoin="round"/></g><text x="1059.0" y="644.0" font-family="Inter, 'IBM Plex Sans Arabic', 'Segoe UI', system-ui, sans-serif" font-size="18.5" font-weight="700" fill="#2B2B2B">Claims &amp; Coding</text><rect x="1274.7" y="574.0" width="47.3" height="22.0" rx="11.0" fill="#E7F4E8"/><text x="1298.4" y="588.6" font-family="Inter, 'IBM Plex Sans Arabic', 'Segoe UI', system-ui, sans-serif" font-size="11" font-weight="700" letter-spacing="0.6" fill="#2E7D32" text-anchor="middle">LIVE</text><circle cx="1067.0" cy="663.5" r="5" fill="#2E7D32" stroke="#2E7D32" stroke-width="2"/><text x="1081.0" y="668.0" font-family="Inter, 'IBM Plex Sans Arabic', 'Segoe UI', system-ui, sans-serif" font-size="13.6" fill="#2B2B2B">Deterministic readiness checks</text><circle cx="1067.0" cy="688.5" r="5" fill="#2E7D32" stroke="#2E7D32" stroke-width="2"/><text x="1081.0" y="693.0" font-family="Inter, 'IBM Plex Sans Arabic', 'Segoe UI', system-ui, sans-serif" font-size="13.6" fill="#2B2B2B">ICD/SBS from the governed map</text><circle cx="1067.0" cy="713.5" r="5" fill="#2E7D32" stroke="#2E7D32" stroke-width="2"/><text x="1081.0" y="718.0" font-family="Inter, 'IBM Plex Sans Arabic', 'Segoe UI', system-ui, sans-serif" font-size="13.6" fill="#2B2B2B">Coder queue is restart-safe</text><circle cx="1067.0" cy="738.5" r="5" fill="#2E7D32" stroke="#2E7D32" stroke-width="2"/><text x="1081.0" y="743.0" font-family="Inter, 'IBM Plex Sans Arabic', 'Segoe UI', system-ui, sans-serif" font-size="13.6" fill="#2B2B2B">Green only when the payer is done</text><circle cx="1067.0" cy="763.5" r="5" fill="#2A63B8" stroke="#2A63B8" stroke-width="2"/><text x="1081.0" y="768.0" font-family="Inter, 'IBM Plex Sans Arabic', 'Segoe UI', system-ui, sans-serif" font-size="13.6" fill="#2B2B2B">Payer and HIS replies are stubs</text>
<rect x="56.0" y="805.6" width="416.0" height="215.0" rx="22" fill="#FFFFFF" stroke="#E8E4DA"/><rect x="56.0" y="805.6" width="416.0" height="215.0" rx="22" fill="#FBEEEE" opacity="0.55"/><rect x="78.0" y="827.6" width="46.0" height="46.0" rx="13" fill="#FFFFFF" stroke="#B45A5A33"/><g transform="translate(89.0 838.6) scale(1.0000)"><rect x="5" y="10.5" width="14" height="9.5" rx="2.2" fill="none" stroke="#B45A5A" stroke-width="1.8"/><path d="M8.5 10.5V8a3.5 3.5 0 0 1 7 0v2.5" fill="none" stroke="#B45A5A" stroke-width="1.8"/><circle cx="12" cy="15.3" r="1.4" fill="#B45A5A"/></g><text x="78.0" y="899.6" font-family="Inter, 'IBM Plex Sans Arabic', 'Segoe UI', system-ui, sans-serif" font-size="18.5" font-weight="700" fill="#2B2B2B">Governance &amp; Audit</text><rect x="402.7" y="829.6" width="47.3" height="22.0" rx="11.0" fill="#E7F4E8"/><text x="426.4" y="844.2" font-family="Inter, 'IBM Plex Sans Arabic', 'Segoe UI', system-ui, sans-serif" font-size="11" font-weight="700" letter-spacing="0.6" fill="#2E7D32" text-anchor="middle">LIVE</text><circle cx="86.0" cy="919.1" r="5" fill="#2E7D32" stroke="#2E7D32" stroke-width="2"/><text x="100.0" y="923.6" font-family="Inter, 'IBM Plex Sans Arabic', 'Segoe UI', system-ui, sans-serif" font-size="13.6" fill="#2B2B2B">SHA-256 audit chain with a verify endpoint</text><circle cx="86.0" cy="944.1" r="5" fill="#2E7D32" stroke="#2E7D32" stroke-width="2"/><text x="100.0" y="948.6" font-family="Inter, 'IBM Plex Sans Arabic', 'Segoe UI', system-ui, sans-serif" font-size="13.6" fill="#2B2B2B">Audit writes land in a durable outbox</text><circle cx="86.0" cy="969.1" r="5" fill="#2E7D32" stroke="#2E7D32" stroke-width="2"/><text x="100.0" y="973.6" font-family="Inter, 'IBM Plex Sans Arabic', 'Segoe UI', system-ui, sans-serif" font-size="13.6" fill="#2B2B2B">The WORM export reads its object back</text><circle cx="86.0" cy="994.1" r="5" fill="#2E7D32" stroke="#2E7D32" stroke-width="2"/><text x="100.0" y="998.6" font-family="Inter, 'IBM Plex Sans Arabic', 'Segoe UI', system-ui, sans-serif" font-size="13.6" fill="#2B2B2B">Reference data is checksummed before use</text><circle cx="86.0" cy="1019.1" r="5" fill="#2E7D32" stroke="#2E7D32" stroke-width="2"/><text x="100.0" y="1023.6" font-family="Inter, 'IBM Plex Sans Arabic', 'Segoe UI', system-ui, sans-serif" font-size="13.6" fill="#2B2B2B">Erasure is a workflow that records proof</text>
<rect x="492.0" y="805.6" width="416.0" height="215.0" rx="22" fill="#FFFFFF" stroke="#E8E4DA"/><rect x="492.0" y="805.6" width="416.0" height="215.0" rx="22" fill="#F1F7EC" opacity="0.55"/><rect x="514.0" y="827.6" width="46.0" height="46.0" rx="13" fill="#FFFFFF" stroke="#5F8F4A33"/><g transform="translate(525.0 838.6) scale(1.0000)"><circle cx="8" cy="12" r="3.2" fill="none" stroke="#5F8F4A" stroke-width="1.8"/><path d="M11.2 12H20M17 12v3M14 12v2.2" fill="none" stroke="#5F8F4A" stroke-width="1.8" stroke-linecap="round"/></g><text x="514.0" y="899.6" font-family="Inter, 'IBM Plex Sans Arabic', 'Segoe UI', system-ui, sans-serif" font-size="18.5" font-weight="700" fill="#2B2B2B">Access &amp; Scope</text><rect x="838.7" y="829.6" width="47.3" height="22.0" rx="11.0" fill="#E7F4E8"/><text x="862.4" y="844.2" font-family="Inter, 'IBM Plex Sans Arabic', 'Segoe UI', system-ui, sans-serif" font-size="11" font-weight="700" letter-spacing="0.6" fill="#2E7D32" text-anchor="middle">LIVE</text><circle cx="522.0" cy="919.1" r="5" fill="#2E7D32" stroke="#2E7D32" stroke-width="2"/><text x="536.0" y="923.6" font-family="Inter, 'IBM Plex Sans Arabic', 'Segoe UI', system-ui, sans-serif" font-size="13.6" fill="#2B2B2B">Keycloak OIDC login on the dev realm</text><circle cx="522.0" cy="944.1" r="5" fill="#2E7D32" stroke="#2E7D32" stroke-width="2"/><text x="536.0" y="948.6" font-family="Inter, 'IBM Plex Sans Arabic', 'Segoe UI', system-ui, sans-serif" font-size="13.6" fill="#2B2B2B">RBAC guard on every guarded route</text><circle cx="522.0" cy="969.1" r="5" fill="#2E7D32" stroke="#2E7D32" stroke-width="2"/><text x="536.0" y="973.6" font-family="Inter, 'IBM Plex Sans Arabic', 'Segoe UI', system-ui, sans-serif" font-size="13.6" fill="#2B2B2B">Patient scope: out of scope is 403</text><circle cx="522.0" cy="994.1" r="5" fill="#2E7D32" stroke="#2E7D32" stroke-width="2"/><text x="536.0" y="998.6" font-family="Inter, 'IBM Plex Sans Arabic', 'Segoe UI', system-ui, sans-serif" font-size="13.6" fill="#2B2B2B">Revocation checked on every request</text><circle cx="522.0" cy="1019.1" r="5" fill="#2E7D32" stroke="#2E7D32" stroke-width="2"/><text x="536.0" y="1023.6" font-family="Inter, 'IBM Plex Sans Arabic', 'Segoe UI', system-ui, sans-serif" font-size="13.6" fill="#2B2B2B">Sessions, OTP limits and OIDC state shared</text>
<rect x="928.0" y="805.6" width="416.0" height="215.0" rx="22" fill="#FFFFFF" stroke="#E8E4DA"/><rect x="928.0" y="805.6" width="416.0" height="215.0" rx="22" fill="#ECF5F9" opacity="0.55"/><rect x="950.0" y="827.6" width="46.0" height="46.0" rx="13" fill="#FFFFFF" stroke="#3E86A833"/><g transform="translate(961.0 838.6) scale(1.0000)"><rect x="4" y="4" width="16" height="5.6" rx="1.8" fill="none" stroke="#3E86A8" stroke-width="1.7"/><rect x="4" y="14.4" width="16" height="5.6" rx="1.8" fill="none" stroke="#3E86A8" stroke-width="1.7"/><circle cx="7.6" cy="6.8" r="1" fill="#3E86A8"/><circle cx="7.6" cy="17.2" r="1" fill="#3E86A8"/></g><text x="950.0" y="899.6" font-family="Inter, 'IBM Plex Sans Arabic', 'Segoe UI', system-ui, sans-serif" font-size="18.5" font-weight="700" fill="#2B2B2B">Platform</text><rect x="1274.7" y="829.6" width="47.3" height="22.0" rx="11.0" fill="#E7F4E8"/><text x="1298.4" y="844.2" font-family="Inter, 'IBM Plex Sans Arabic', 'Segoe UI', system-ui, sans-serif" font-size="11" font-weight="700" letter-spacing="0.6" fill="#2E7D32" text-anchor="middle">LIVE</text><circle cx="958.0" cy="919.1" r="5" fill="#2E7D32" stroke="#2E7D32" stroke-width="2"/><text x="972.0" y="923.6" font-family="Inter, 'IBM Plex Sans Arabic', 'Segoe UI', system-ui, sans-serif" font-size="13.6" fill="#2B2B2B">Core :4000, web :3000, six AI services :5001-5006</text><circle cx="958.0" cy="944.1" r="5" fill="#2E7D32" stroke="#2E7D32" stroke-width="2"/><text x="972.0" y="948.6" font-family="Inter, 'IBM Plex Sans Arabic', 'Segoe UI', system-ui, sans-serif" font-size="13.6" fill="#2B2B2B">Postgres, Neo4j, Keycloak, MinIO, Redis in Docker</text><circle cx="958.0" cy="969.1" r="5" fill="#2E7D32" stroke="#2E7D32" stroke-width="2"/><text x="972.0" y="973.6" font-family="Inter, 'IBM Plex Sans Arabic', 'Segoe UI', system-ui, sans-serif" font-size="13.6" fill="#2B2B2B">/health, /health/ready and /health/preflight</text><circle cx="958.0" cy="994.1" r="5" fill="#2E7D32" stroke="#2E7D32" stroke-width="2"/><text x="972.0" y="998.6" font-family="Inter, 'IBM Plex Sans Arabic', 'Segoe UI', system-ui, sans-serif" font-size="13.6" fill="#2B2B2B">The ingestion sweep holds an advisory lock</text><circle cx="958.0" cy="1019.1" r="5" fill="none" stroke="#4C3FA8" stroke-width="2"/><text x="972.0" y="1023.6" font-family="Inter, 'IBM Plex Sans Arabic', 'Segoe UI', system-ui, sans-serif" font-size="13.6" fill="#2B2B2B">Containers for core and web are the L01 item</text>
<rect x="56.0" y="1040.6" width="743.0" height="269.0" rx="22" fill="#FFFFFF" stroke="#E8E4DA"/><rect x="56.0" y="1040.6" width="743.0" height="269.0" rx="22" fill="#FDF2EA" opacity="0.55"/><rect x="78.0" y="1062.6" width="46.0" height="46.0" rx="13" fill="#FFFFFF" stroke="#C97B4333"/><g transform="translate(89.0 1073.6) scale(1.0000)"><path d="M9 3v5M15 3v5" stroke="#C97B43" stroke-width="1.9" stroke-linecap="round"/><path d="M6.5 8h11v3.2a5.5 5.5 0 0 1-11 0z" fill="none" stroke="#C97B43" stroke-width="1.8"/><path d="M12 16.4V21" stroke="#C97B43" stroke-width="1.9" stroke-linecap="round"/></g><text x="78.0" y="1134.6" font-family="Inter, 'IBM Plex Sans Arabic', 'Segoe UI', system-ui, sans-serif" font-size="18.5" font-weight="700" fill="#2B2B2B">Connector Modes — What Is Real</text><rect x="695.6" y="1064.6" width="81.4" height="22.0" rx="11.0" fill="#E8F0FB"/><text x="736.3" y="1079.2" font-family="Inter, 'IBM Plex Sans Arabic', 'Segoe UI', system-ui, sans-serif" font-size="11" font-weight="700" letter-spacing="0.6" fill="#2A63B8" text-anchor="middle">SIMULATED</text><circle cx="86.0" cy="1154.1" r="5" fill="#2E7D32" stroke="#2E7D32" stroke-width="2"/><text x="100.0" y="1158.6" font-family="Inter, 'IBM Plex Sans Arabic', 'Segoe UI', system-ui, sans-serif" font-size="14.2" fill="#2B2B2B">Model provider: deepseek — a real cloud API</text><circle cx="86.0" cy="1179.1" r="5" fill="#2E7D32" stroke="#2E7D32" stroke-width="2"/><text x="100.0" y="1183.6" font-family="Inter, 'IBM Plex Sans Arabic', 'Segoe UI', system-ui, sans-serif" font-size="14.2" fill="#2B2B2B">Transcription: local faster-whisper large-v3</text><circle cx="86.0" cy="1204.1" r="5" fill="#2A63B8" stroke="#2A63B8" stroke-width="2"/><text x="100.0" y="1208.6" font-family="Inter, 'IBM Plex Sans Arabic', 'Segoe UI', system-ui, sans-serif" font-size="14.2" fill="#2B2B2B">NPHIES: a stub. There is no real payer behind it</text><circle cx="86.0" cy="1229.1" r="5" fill="#2A63B8" stroke="#2A63B8" stroke-width="2"/><text x="100.0" y="1233.6" font-family="Inter, 'IBM Plex Sans Arabic', 'Segoe UI', system-ui, sans-serif" font-size="14.2" fill="#2B2B2B">HIS: a stub. There is no hospital system behind it</text><circle cx="86.0" cy="1254.1" r="5" fill="#2A63B8" stroke="#2A63B8" stroke-width="2"/><text x="100.0" y="1258.6" font-family="Inter, 'IBM Plex Sans Arabic', 'Segoe UI', system-ui, sans-serif" font-size="14.2" fill="#2B2B2B">SMS/OTP: a stub. The code is logged, never sent</text><rect x="78.0" y="1287.6" width="699.0" height="34.0" rx="10" fill="#FAF8F2" stroke="#E8E4DA"/><text x="90.0" y="1305.6" font-family="Inter, 'IBM Plex Sans Arabic', 'Segoe UI', system-ui, sans-serif" font-size="12.6" fill="#6B6B6B">Every mode is printed on /health/ready, so no one has to infer which parts of this are real.</text>
<rect x="819.0" y="1040.6" width="525.0" height="269.0" rx="22" fill="#FFFFFF" stroke="#E8E4DA"/><rect x="819.0" y="1040.6" width="525.0" height="269.0" rx="22" fill="#FBEEEE" opacity="0.55"/><rect x="841.0" y="1062.6" width="46.0" height="46.0" rx="13" fill="#FFFFFF" stroke="#B45A5A33"/><g transform="translate(852.0 1073.6) scale(1.0000)"><rect x="4" y="4" width="16" height="16" rx="3" fill="none" stroke="#B45A5A" stroke-width="1.8" stroke-dasharray="3.4 2.6"/><path d="M9 9h6v6H9z" fill="none" stroke="#B45A5A" stroke-width="1.5"/></g><text x="841.0" y="1134.6" font-family="Inter, 'IBM Plex Sans Arabic', 'Segoe UI', system-ui, sans-serif" font-size="18.5" font-weight="700" fill="#2B2B2B">Not Built, Not Claimed</text><rect x="1240.6" y="1064.6" width="81.4" height="22.0" rx="11.0" fill="#FAE9EA"/><text x="1281.3" y="1079.2" font-family="Inter, 'IBM Plex Sans Arabic', 'Segoe UI', system-ui, sans-serif" font-size="11" font-weight="700" letter-spacing="0.6" fill="#A63A46" text-anchor="middle">NOT BUILT</text><circle cx="849.0" cy="1154.1" r="5" fill="none" stroke="#A63A46" stroke-width="2"/><text x="863.0" y="1158.6" font-family="Inter, 'IBM Plex Sans Arabic', 'Segoe UI', system-ui, sans-serif" font-size="14.2" fill="#2B2B2B">Real patient data — every patient is synthetic</text><circle cx="849.0" cy="1179.1" r="5" fill="none" stroke="#A63A46" stroke-width="2"/><text x="863.0" y="1183.6" font-family="Inter, 'IBM Plex Sans Arabic', 'Segoe UI', system-ui, sans-serif" font-size="14.2" fill="#2B2B2B">Live NPHIES submission, eligibility or pre-auth</text><circle cx="849.0" cy="1204.1" r="5" fill="none" stroke="#A63A46" stroke-width="2"/><text x="863.0" y="1208.6" font-family="Inter, 'IBM Plex Sans Arabic', 'Segoe UI', system-ui, sans-serif" font-size="14.2" fill="#2B2B2B">A hospital FHIR feed</text><circle cx="849.0" cy="1229.1" r="5" fill="none" stroke="#A63A46" stroke-width="2"/><text x="863.0" y="1233.6" font-family="Inter, 'IBM Plex Sans Arabic', 'Segoe UI', system-ui, sans-serif" font-size="14.2" fill="#2B2B2B">Arabic ASR validation, and Arabic dictation</text><circle cx="849.0" cy="1254.1" r="5" fill="none" stroke="#A63A46" stroke-width="2"/><text x="863.0" y="1258.6" font-family="Inter, 'IBM Plex Sans Arabic', 'Segoe UI', system-ui, sans-serif" font-size="14.2" fill="#2B2B2B">An independent evaluation set with adjudication</text><rect x="841.0" y="1287.6" width="481.0" height="50.0" rx="10" fill="#FAF8F2" stroke="#E8E4DA"/><text x="853.0" y="1305.6" font-family="Inter, 'IBM Plex Sans Arabic', 'Segoe UI', system-ui, sans-serif" font-size="12.6" fill="#6B6B6B">No borrowed benchmark and no ROI figure appears in any claim this</text><text x="853.0" y="1321.6" font-family="Inter, 'IBM Plex Sans Arabic', 'Segoe UI', system-ui, sans-serif" font-size="12.6" fill="#6B6B6B">system makes.</text>
<rect x="56" y="1335.6" width="1288" height="108" rx="22" fill="#212635"/><text x="82" y="1369.6" font-family="Inter, 'IBM Plex Sans Arabic', 'Segoe UI', system-ui, sans-serif" font-size="12.5" font-weight="700" letter-spacing="2.4" fill="#CFCBC1">THE FIVE NON-NEGOTIABLES</text>
<text x="82.0" y="1403.6" font-family="'Cascadia Mono', Consolas, 'SF Mono', Menlo, monospace" font-size="12.5" fill="#8FCB74">01</text><text x="108.0" y="1403.6" font-family="Inter, 'IBM Plex Sans Arabic', 'Segoe UI', system-ui, sans-serif" font-size="14.6" font-weight="600" fill="#F6F4EF">Claims match code</text>
<text x="332.4" y="1403.6" font-family="'Cascadia Mono', Consolas, 'SF Mono', Menlo, monospace" font-size="12.5" fill="#8FCB74">02</text><text x="358.4" y="1403.6" font-family="Inter, 'IBM Plex Sans Arabic', 'Segoe UI', system-ui, sans-serif" font-size="14.6" font-weight="600" fill="#F6F4EF">Facts are deterministic</text>
<text x="582.8" y="1403.6" font-family="'Cascadia Mono', Consolas, 'SF Mono', Menlo, monospace" font-size="12.5" fill="#8FCB74">03</text><text x="608.8" y="1403.6" font-family="Inter, 'IBM Plex Sans Arabic', 'Segoe UI', system-ui, sans-serif" font-size="14.6" font-weight="600" fill="#F6F4EF">Unknown is not green</text>
<text x="833.2" y="1403.6" font-family="'Cascadia Mono', Consolas, 'SF Mono', Menlo, monospace" font-size="12.5" fill="#8FCB74">04</text><text x="859.2" y="1403.6" font-family="Inter, 'IBM Plex Sans Arabic', 'Segoe UI', system-ui, sans-serif" font-size="14.6" font-weight="600" fill="#F6F4EF">Measured locally or silent</text>
<text x="1083.6" y="1403.6" font-family="'Cascadia Mono', Consolas, 'SF Mono', Menlo, monospace" font-size="12.5" fill="#8FCB74">05</text><text x="1109.6" y="1403.6" font-family="Inter, 'IBM Plex Sans Arabic', 'Segoe UI', system-ui, sans-serif" font-size="14.6" font-weight="600" fill="#F6F4EF">The clinician signs</text>
<rect x="56" y="1463.6" width="1288" height="116" rx="22" fill="#FFFFFF" stroke="#E8E4DA"/><text x="82" y="1497.6" font-family="Inter, 'IBM Plex Sans Arabic', 'Segoe UI', system-ui, sans-serif" font-size="12.5" font-weight="700" letter-spacing="2.2" fill="#6B6B6B">SOURCES THIS MAP WAS DRAWN FROM</text>
<rect x="82.0" y="1509.6" width="212.5" height="34" rx="17" fill="#FAF8F2" stroke="#E8E4DA"/><text x="96.0" y="1531.6" font-family="'Cascadia Mono', Consolas, 'SF Mono', Menlo, monospace" font-size="12.4" fill="#6B6B6B">docs/DEMO_TRUTH_TABLE.md</text>
<rect x="306.5" y="1509.6" width="397.0" height="34" rx="17" fill="#FAF8F2" stroke="#E8E4DA"/><text x="320.5" y="1531.6" font-family="'Cascadia Mono', Consolas, 'SF Mono', Menlo, monospace" font-size="12.4" fill="#6B6B6B">docs/assessment/PRE_DEMO_READINESS_ASSESSMENT.md</text>
<rect x="715.5" y="1509.6" width="343.2" height="34" rx="17" fill="#FAF8F2" stroke="#E8E4DA"/><text x="729.5" y="1531.6" font-family="'Cascadia Mono', Consolas, 'SF Mono', Menlo, monospace" font-size="12.4" fill="#6B6B6B">live Postgres + Neo4j checks, 18 Sep 2026</text>
<text x="82" y="1563.6" font-family="Inter, 'IBM Plex Sans Arabic', 'Segoe UI', system-ui, sans-serif" font-size="12.6" fill="#9A968E">Synthetic data only · not for clinical use · every status is traceable to a file, a query or an endpoint</text>
</svg>